<mxfile host="65bd71144e" modified="2020-11-09T12:04:56.984Z" agent="5.0 (Windows NT 10.0; Win64; x64) AppleWebKit/537.36 (KHTML, like Gecko) Code/1.51.0 Chrome/83.0.4103.122 Electron/9.3.3 Safari/537.36" version="13.6.5" etag="dXmKdyhdmVAW9VAIvlGE">
    <diagram id="uIf_JoW2IaFRgngMexGj" name="Page-1">
        <mxGraphModel dx="916" dy="582" grid="0" gridSize="10" guides="1" tooltips="1" connect="1" arrows="1" fold="1" page="1" pageScale="1" pageWidth="827" pageHeight="1169" math="0" shadow="0">
            <root>
                <mxCell id="0"/>
                <mxCell id="1" parent="0"/>
                <mxCell id="2" value="&lt;table border=&quot;1&quot; width=&quot;100%&quot; cellpadding=&quot;4&quot; style=&quot;width: 100% ; height: 100% ; border-collapse: collapse&quot;&gt;&lt;tbody&gt;&lt;tr&gt;&lt;th style=&quot;text-align: center&quot;&gt;MenuRegistry&lt;/th&gt;&lt;/tr&gt;&lt;tr&gt;&lt;td&gt;- dishes : ArrayList&amp;lt;Dish&amp;gt;&lt;br&gt;- menus : HashMap&amp;lt;String, Menu&amp;gt;&lt;/td&gt;&lt;/tr&gt;&lt;tr&gt;&lt;td&gt;+ MenuRegistry&lt;br&gt;+ add(dish : Dish) : boolean&lt;br&gt;+ add(name : String, menu : Menu) : boolean&lt;br&gt;+ getDishes : ArrayList&amp;lt;Dish&amp;gt;&lt;br&gt;+ getMenus : HashMap&amp;lt;String, Menu&amp;gt;&lt;br&gt;+ toString : String&lt;/td&gt;&lt;/tr&gt;&lt;/tbody&gt;&lt;/table&gt;" style="text;html=1;fillColor=none;overflow=fill;strokeColor=#f0f0f0;align=left;" vertex="1" parent="1">
                    <mxGeometry x="23" y="23" width="250" height="190" as="geometry"/>
                </mxCell>
                <mxCell id="3" value="&lt;table border=&quot;1&quot; width=&quot;100%&quot; cellpadding=&quot;4&quot; style=&quot;width: 100% ; height: 100% ; border-collapse: collapse&quot;&gt;&lt;tbody&gt;&lt;tr&gt;&lt;th align=&quot;center&quot;&gt;Menu&lt;/th&gt;&lt;/tr&gt;&lt;tr&gt;&lt;td&gt;-&lt;/td&gt;&lt;/tr&gt;&lt;tr&gt;&lt;td align=&quot;center&quot;&gt;Section 2.1&lt;br&gt;Section 2.2&lt;br&gt;Section 2.3&lt;/td&gt;&lt;/tr&gt;&lt;/tbody&gt;&lt;/table&gt;" style="text;html=1;fillColor=none;overflow=fill;strokeColor=#f0f0f0;" vertex="1" parent="1">
                    <mxGeometry x="366" y="23" width="160" height="140" as="geometry"/>
                </mxCell>
            </root>
        </mxGraphModel>
    </diagram>
</mxfile>